<svg width="600" height="111" viewBox="0 0 600 111" fill="none" xmlns="http://www.w3.org/2000/svg">
<rect width="600" height="111" fill="url(#paint0_linear_10_3)"/>
<mask id="path-1-inside-1_10_3" fill="white">
<path d="M297.868 69V34.0909H285.084C282.607 34.0909 280.555 34.5 278.93 35.3182C277.305 36.125 276.089 37.2216 275.283 38.608C274.476 39.983 274.072 41.5341 274.072 43.2614C274.072 44.7159 274.339 45.9432 274.874 46.9432C275.408 47.9318 276.124 48.7273 277.021 49.3295C277.908 49.9205 278.885 50.3523 279.953 50.625V50.9659C278.794 51.0227 277.663 51.3977 276.561 52.0909C275.447 52.7727 274.527 53.7443 273.8 55.0057C273.072 56.267 272.709 57.8011 272.709 59.608C272.709 61.392 273.129 62.9943 273.97 64.4148C274.8 65.8239 276.084 66.9432 277.822 67.7727C279.561 68.5909 281.783 69 284.487 69H297.868ZM292.601 64.483H284.999C282.476 64.483 280.669 63.9943 279.578 63.017C278.487 62.0398 277.942 60.8182 277.942 59.3523C277.942 58.25 278.22 57.2386 278.777 56.3182C279.334 55.3977 280.129 54.6648 281.163 54.1193C282.186 53.5739 283.402 53.3011 284.811 53.3011H292.601V64.483ZM292.601 49.1932H285.544C284.362 49.1932 283.3 48.9659 282.357 48.5114C281.402 48.0568 280.646 47.4205 280.089 46.6023C279.521 45.7727 279.237 44.7955 279.237 43.6705C279.237 42.2273 279.743 41.017 280.754 40.0398C281.766 39.0625 283.317 38.5739 285.408 38.5739H292.601V49.1932Z"/>
</mask>
<path d="M297.868 69V34.0909H285.084C282.607 34.0909 280.555 34.5 278.93 35.3182C277.305 36.125 276.089 37.2216 275.283 38.608C274.476 39.983 274.072 41.5341 274.072 43.2614C274.072 44.7159 274.339 45.9432 274.874 46.9432C275.408 47.9318 276.124 48.7273 277.021 49.3295C277.908 49.9205 278.885 50.3523 279.953 50.625V50.9659C278.794 51.0227 277.663 51.3977 276.561 52.0909C275.447 52.7727 274.527 53.7443 273.8 55.0057C273.072 56.267 272.709 57.8011 272.709 59.608C272.709 61.392 273.129 62.9943 273.97 64.4148C274.8 65.8239 276.084 66.9432 277.822 67.7727C279.561 68.5909 281.783 69 284.487 69H297.868ZM292.601 64.483H284.999C282.476 64.483 280.669 63.9943 279.578 63.017C278.487 62.0398 277.942 60.8182 277.942 59.3523C277.942 58.25 278.22 57.2386 278.777 56.3182C279.334 55.3977 280.129 54.6648 281.163 54.1193C282.186 53.5739 283.402 53.3011 284.811 53.3011H292.601V64.483ZM292.601 49.1932H285.544C284.362 49.1932 283.3 48.9659 282.357 48.5114C281.402 48.0568 280.646 47.4205 280.089 46.6023C279.521 45.7727 279.237 44.7955 279.237 43.6705C279.237 42.2273 279.743 41.017 280.754 40.0398C281.766 39.0625 283.317 38.5739 285.408 38.5739H292.601V49.1932Z" fill="url(#paint1_radial_10_3)"/>
<path d="M297.868 69H298.168V69.3H297.868V69ZM297.868 34.0909V33.7909H298.168V34.0909H297.868ZM278.93 35.3182L279.065 35.5861L279.064 35.5869L278.93 35.3182ZM275.283 38.608L275.542 38.7589L275.541 38.7598L275.283 38.608ZM274.874 46.9432L274.61 47.0858L274.609 47.0845L274.874 46.9432ZM277.021 49.3295L276.855 49.5792L276.854 49.5787L277.021 49.3295ZM279.953 50.625L280.027 50.3343L280.253 50.392V50.625H279.953ZM279.953 50.9659H280.253V51.2516L279.968 51.2655L279.953 50.9659ZM276.561 52.0909L276.721 52.3449L276.718 52.3468L276.561 52.0909ZM273.8 55.0057L273.54 54.8558L273.54 54.8558L273.8 55.0057ZM273.97 64.4148L274.228 64.2619L274.229 64.2626L273.97 64.4148ZM277.822 67.7727L277.695 68.0442L277.693 68.0435L277.822 67.7727ZM292.601 64.483H292.901V64.783H292.601V64.483ZM279.578 63.017L279.778 62.7936L279.778 62.7936L279.578 63.017ZM278.777 56.3182L279.034 56.4735L279.034 56.4735L278.777 56.3182ZM281.163 54.1193L281.305 54.384L281.303 54.3847L281.163 54.1193ZM292.601 53.3011V53.0011H292.901V53.3011H292.601ZM292.601 49.1932H292.901V49.4932H292.601V49.1932ZM282.357 48.5114L282.486 48.2405L282.487 48.2411L282.357 48.5114ZM280.089 46.6023L280.337 46.4327L280.338 46.4335L280.089 46.6023ZM280.754 40.0398L280.963 40.2555L280.963 40.2555L280.754 40.0398ZM292.601 38.5739V38.2739H292.901V38.5739H292.601ZM297.568 69V34.0909H298.168V69H297.568ZM297.868 34.3909H285.084V33.7909H297.868V34.3909ZM285.084 34.3909C282.637 34.3909 280.636 34.7952 279.065 35.5861L278.795 35.0502C280.475 34.2048 282.576 33.7909 285.084 33.7909V34.3909ZM279.064 35.5869C277.484 36.3711 276.315 37.4297 275.542 38.7589L275.023 38.4571C275.863 37.0135 277.127 35.8789 278.797 35.0495L279.064 35.5869ZM275.541 38.7598C274.764 40.0849 274.372 41.5829 274.372 43.2614H273.772C273.772 41.4853 274.188 39.881 275.024 38.4561L275.541 38.7598ZM274.372 43.2614C274.372 44.6802 274.633 45.8559 275.138 46.8018L274.609 47.0845C274.046 46.0304 273.772 44.7516 273.772 43.2614H274.372ZM275.138 46.8006C275.649 47.7481 276.333 48.5064 277.188 49.0804L276.854 49.5787C275.914 48.9482 275.166 48.1155 274.61 47.0858L275.138 46.8006ZM277.188 49.0799C278.045 49.6514 278.991 50.0697 280.027 50.3343L279.879 50.9157C278.779 50.6349 277.77 50.1895 276.855 49.5792L277.188 49.0799ZM280.253 50.625V50.9659H279.653V50.625H280.253ZM279.968 51.2655C278.866 51.3195 277.785 51.6757 276.721 52.3449L276.401 51.837C277.542 51.1198 278.722 50.7259 279.938 50.6663L279.968 51.2655ZM276.718 52.3468C275.652 52.9995 274.765 53.9325 274.06 55.1555L273.54 54.8558C274.289 53.5562 275.243 52.5459 276.404 51.8351L276.718 52.3468ZM274.06 55.1555C273.364 56.3616 273.009 57.8412 273.009 59.608H272.409C272.409 57.7611 272.781 56.1725 273.54 54.8558L274.06 55.1555ZM273.009 59.608C273.009 61.3428 273.417 62.8915 274.228 64.2619L273.712 64.5676C272.842 63.0972 272.409 61.4413 272.409 59.608H273.009ZM274.229 64.2626C275.023 65.6115 276.257 66.6935 277.952 67.502L277.693 68.0435C275.91 67.1929 274.577 66.0362 273.712 64.567L274.229 64.2626ZM277.95 67.5013C279.636 68.2946 281.81 68.7 284.487 68.7V69.3C281.755 69.3 279.486 68.8872 277.695 68.0442L277.95 67.5013ZM284.487 68.7H297.868V69.3H284.487V68.7ZM292.601 64.783H284.999V64.183H292.601V64.783ZM284.999 64.783C282.451 64.783 280.552 64.2921 279.378 63.2405L279.778 62.7936C280.786 63.6965 282.501 64.183 284.999 64.183V64.783ZM279.378 63.2405C278.223 62.2063 277.642 60.9034 277.642 59.3523H278.242C278.242 60.733 278.751 61.8733 279.778 62.7936L279.378 63.2405ZM277.642 59.3523C277.642 58.1967 277.934 57.1314 278.52 56.1629L279.034 56.4735C278.506 57.3459 278.242 58.3033 278.242 59.3523H277.642ZM278.52 56.1629C279.108 55.1918 279.945 54.4226 281.023 53.854L281.303 54.3847C280.313 54.907 279.56 55.6036 279.034 56.4735L278.52 56.1629ZM281.022 53.8546C282.097 53.2815 283.363 53.0011 284.811 53.0011V53.6011C283.441 53.6011 282.275 53.8662 281.305 54.384L281.022 53.8546ZM284.811 53.0011H292.601V53.6011H284.811V53.0011ZM292.901 53.3011V64.483H292.301V53.3011H292.901ZM292.601 49.4932H285.544V48.8932H292.601V49.4932ZM285.544 49.4932C284.323 49.4932 283.215 49.2581 282.226 48.7816L282.487 48.2411C283.384 48.6737 284.401 48.8932 285.544 48.8932V49.4932ZM282.228 48.7822C281.228 48.3064 280.43 47.6362 279.841 46.7711L280.338 46.4335C280.862 47.2047 281.576 47.8072 282.486 48.2405L282.228 48.7822ZM279.842 46.7718C279.236 45.8865 278.937 44.8485 278.937 43.6705H279.537C279.537 44.7424 279.807 45.659 280.337 46.4327L279.842 46.7718ZM278.937 43.6705C278.937 42.1483 279.474 40.8595 280.546 39.824L280.963 40.2555C280.012 41.1746 279.537 42.3062 279.537 43.6705H278.937ZM280.546 39.824C281.635 38.7714 283.276 38.2739 285.408 38.2739V38.8739C283.357 38.8739 281.896 39.3536 280.963 40.2555L280.546 39.824ZM285.408 38.2739H292.601V38.8739H285.408V38.2739ZM292.901 38.5739V49.1932H292.301V38.5739H292.901Z" fill="white" fill-opacity="0.2" mask="url(#path-1-inside-1_10_3)"/>
<mask id="path-3-inside-2_10_3" fill="white">
<path d="M300.898 69V34.0909H306.165V50.7614H306.591L321.233 34.0909H327.864L313.784 49.8068L327.915 69H321.574L310.29 53.4034L306.165 58.142V69H300.898Z"/>
</mask>
<path d="M300.898 69V34.0909H306.165V50.7614H306.591L321.233 34.0909H327.864L313.784 49.8068L327.915 69H321.574L310.29 53.4034L306.165 58.142V69H300.898Z" fill="url(#paint2_radial_10_3)"/>
<path d="M300.898 69H300.598V69.3H300.898V69ZM300.898 34.0909V33.7909H300.598V34.0909H300.898ZM306.165 34.0909H306.465V33.7909H306.165V34.0909ZM306.165 50.7614H305.865V51.0614H306.165V50.7614ZM306.591 50.7614V51.0614H306.727L306.816 50.9593L306.591 50.7614ZM321.233 34.0909V33.7909H321.097L321.008 33.8929L321.233 34.0909ZM327.864 34.0909L328.087 34.2911L328.535 33.7909H327.864V34.0909ZM313.784 49.8068L313.561 49.6066L313.398 49.7883L313.543 49.9847L313.784 49.8068ZM327.915 69V69.3H328.508L328.156 68.8221L327.915 69ZM321.574 69L321.331 69.1759L321.421 69.3H321.574V69ZM310.29 53.4034L310.533 53.2276L310.311 52.9216L310.063 53.2064L310.29 53.4034ZM306.165 58.142L305.938 57.9451L305.865 58.0298V58.142H306.165ZM306.165 69V69.3H306.465V69H306.165ZM301.198 69V34.0909H300.598V69H301.198ZM300.898 34.3909H306.165V33.7909H300.898V34.3909ZM305.865 34.0909V50.7614H306.465V34.0909H305.865ZM306.165 51.0614H306.591V50.4614H306.165V51.0614ZM306.816 50.9593L321.458 34.2889L321.008 33.8929L306.366 50.5634L306.816 50.9593ZM321.233 34.3909H327.864V33.7909H321.233V34.3909ZM327.64 33.8907L313.561 49.6066L314.008 50.007L328.087 34.2911L327.64 33.8907ZM313.543 49.9847L327.673 69.1779L328.156 68.8221L314.026 49.629L313.543 49.9847ZM327.915 68.7H321.574V69.3H327.915V68.7ZM321.817 68.8241L310.533 53.2276L310.047 53.5793L321.331 69.1759L321.817 68.8241ZM310.063 53.2064L305.938 57.9451L306.391 58.339L310.516 53.6004L310.063 53.2064ZM305.865 58.142V69H306.465V58.142H305.865ZM306.165 68.7H300.898V69.3H306.165V68.7Z" fill="white" fill-opacity="0.2" mask="url(#path-3-inside-2_10_3)"/>
<path d="M275.321 76.0469H278.555C279.243 76.0469 279.84 76.1585 280.346 76.3818C280.852 76.6051 281.241 76.9355 281.515 77.373C281.793 77.806 281.932 78.3392 281.932 78.9727C281.932 79.4421 281.831 79.8682 281.631 80.251C281.435 80.6338 281.164 80.9551 280.817 81.2148C280.471 81.4701 280.07 81.6455 279.614 81.7412L279.32 81.8506H275.868L275.854 81.1328H278.746C279.266 81.1328 279.699 81.0326 280.045 80.832C280.391 80.6315 280.651 80.3672 280.824 80.0391C281.002 79.7064 281.091 79.3509 281.091 78.9727C281.091 78.5215 280.993 78.1318 280.797 77.8037C280.605 77.471 280.321 77.2158 279.942 77.0381C279.564 76.8604 279.102 76.7715 278.555 76.7715H276.162V86H275.321V76.0469ZM281.467 86L278.89 81.5498L279.792 81.543L282.362 85.9111V86H281.467ZM286.908 86.1367C286.425 86.1367 285.981 86.0479 285.575 85.8701C285.174 85.6924 284.823 85.4417 284.522 85.1182C284.226 84.7946 283.996 84.4118 283.832 83.9697C283.673 83.5231 283.593 83.0355 283.593 82.5068V82.2129C283.593 81.6432 283.677 81.1283 283.846 80.668C284.014 80.2077 284.247 79.8135 284.543 79.4854C284.839 79.1572 285.176 78.9066 285.555 78.7334C285.938 78.5557 286.339 78.4668 286.758 78.4668C287.227 78.4668 287.644 78.5511 288.009 78.7197C288.373 78.8838 288.679 79.1185 288.925 79.4238C289.175 79.7246 289.365 80.0824 289.492 80.4971C289.62 80.9072 289.684 81.3607 289.684 81.8574V82.3564H284.085V81.6592H288.87V81.5635C288.861 81.1488 288.777 80.7614 288.617 80.4014C288.462 80.0368 288.23 79.7406 287.92 79.5127C287.61 79.2848 287.223 79.1709 286.758 79.1709C286.411 79.1709 286.092 79.2438 285.801 79.3896C285.514 79.5355 285.265 79.7451 285.056 80.0186C284.851 80.2874 284.691 80.6087 284.577 80.9824C284.468 81.3516 284.413 81.7617 284.413 82.2129V82.5068C284.413 82.917 284.472 83.2998 284.591 83.6553C284.714 84.0062 284.887 84.3161 285.11 84.585C285.338 84.8538 285.607 85.0635 285.917 85.2139C286.227 85.3643 286.569 85.4395 286.942 85.4395C287.38 85.4395 287.767 85.3597 288.104 85.2002C288.442 85.0361 288.745 84.7786 289.014 84.4277L289.526 84.8242C289.367 85.0612 289.166 85.2799 288.925 85.4805C288.688 85.681 288.403 85.8405 288.07 85.959C287.738 86.0775 287.35 86.1367 286.908 86.1367ZM293.382 85.2139L295.754 78.6035H296.595L293.826 86H293.231L293.382 85.2139ZM291.235 78.6035L293.635 85.2344L293.765 86H293.163L290.388 78.6035H291.235ZM298.851 78.6035V86H298.037V78.6035H298.851ZM297.894 76.4639C297.894 76.3089 297.941 76.179 298.037 76.0742C298.137 75.9648 298.274 75.9102 298.447 75.9102C298.62 75.9102 298.757 75.9648 298.857 76.0742C298.962 76.179 299.015 76.3089 299.015 76.4639C299.015 76.6143 298.962 76.7441 298.857 76.8535C298.757 76.9583 298.62 77.0107 298.447 77.0107C298.274 77.0107 298.137 76.9583 298.037 76.8535C297.941 76.7441 297.894 76.6143 297.894 76.4639ZM303.943 86.1367C303.46 86.1367 303.016 86.0479 302.61 85.8701C302.209 85.6924 301.858 85.4417 301.558 85.1182C301.261 84.7946 301.031 84.4118 300.867 83.9697C300.708 83.5231 300.628 83.0355 300.628 82.5068V82.2129C300.628 81.6432 300.712 81.1283 300.881 80.668C301.049 80.2077 301.282 79.8135 301.578 79.4854C301.874 79.1572 302.212 78.9066 302.59 78.7334C302.973 78.5557 303.374 78.4668 303.793 78.4668C304.262 78.4668 304.679 78.5511 305.044 78.7197C305.409 78.8838 305.714 79.1185 305.96 79.4238C306.211 79.7246 306.4 80.0824 306.527 80.4971C306.655 80.9072 306.719 81.3607 306.719 81.8574V82.3564H301.12V81.6592H305.905V81.5635C305.896 81.1488 305.812 80.7614 305.652 80.4014C305.497 80.0368 305.265 79.7406 304.955 79.5127C304.645 79.2848 304.258 79.1709 303.793 79.1709C303.447 79.1709 303.128 79.2438 302.836 79.3896C302.549 79.5355 302.3 79.7451 302.091 80.0186C301.886 80.2874 301.726 80.6087 301.612 80.9824C301.503 81.3516 301.448 81.7617 301.448 82.2129V82.5068C301.448 82.917 301.507 83.2998 301.626 83.6553C301.749 84.0062 301.922 84.3161 302.146 84.585C302.373 84.8538 302.642 85.0635 302.952 85.2139C303.262 85.3643 303.604 85.4395 303.978 85.4395C304.415 85.4395 304.802 85.3597 305.14 85.2002C305.477 85.0361 305.78 84.7786 306.049 84.4277L306.562 84.8242C306.402 85.0612 306.201 85.2799 305.96 85.4805C305.723 85.681 305.438 85.8405 305.105 85.959C304.773 86.0775 304.385 86.1367 303.943 86.1367ZM310.383 84.2705L312.167 78.6035H312.741L312.399 80.1279L310.533 86H309.959L310.383 84.2705ZM308.53 78.6035L310.096 84.3047L310.431 86H309.836L307.689 78.6035H308.53ZM314.963 84.2842L316.487 78.6035H317.328L315.182 86H314.594L314.963 84.2842ZM312.857 78.6035L314.614 84.2227L315.059 86H314.484L312.577 80.1211L312.256 78.6035H312.857ZM323.33 84.1133C323.33 83.9128 323.28 83.7145 323.18 83.5186C323.079 83.3226 322.886 83.1426 322.599 82.9785C322.316 82.8145 321.899 82.6755 321.348 82.5615C320.938 82.4704 320.571 82.3678 320.247 82.2539C319.928 82.14 319.659 82.0033 319.44 81.8438C319.222 81.6842 319.055 81.4928 318.941 81.2695C318.827 81.0462 318.771 80.7819 318.771 80.4766C318.771 80.2031 318.83 79.9456 318.948 79.7041C319.071 79.458 319.244 79.2438 319.468 79.0615C319.696 78.8747 319.969 78.7288 320.288 78.624C320.612 78.5192 320.974 78.4668 321.375 78.4668C321.945 78.4668 322.432 78.5648 322.838 78.7607C323.248 78.9521 323.56 79.2142 323.774 79.5469C323.993 79.8796 324.103 80.2555 324.103 80.6748H323.289C323.289 80.4196 323.214 80.1781 323.063 79.9502C322.918 79.7223 322.701 79.5355 322.414 79.3896C322.132 79.2438 321.785 79.1709 321.375 79.1709C320.951 79.1709 320.607 79.2347 320.343 79.3623C320.078 79.4899 319.885 79.6517 319.762 79.8477C319.643 80.0436 319.584 80.2464 319.584 80.4561C319.584 80.6201 319.609 80.7705 319.659 80.9072C319.714 81.0394 319.81 81.1624 319.946 81.2764C320.088 81.3903 320.288 81.4974 320.548 81.5977C320.808 81.6979 321.145 81.7959 321.56 81.8916C322.157 82.0238 322.644 82.1855 323.022 82.377C323.405 82.5638 323.688 82.7962 323.87 83.0742C324.052 83.3477 324.144 83.6803 324.144 84.0723C324.144 84.3776 324.08 84.6579 323.952 84.9131C323.825 85.1637 323.64 85.3802 323.398 85.5625C323.161 85.7448 322.874 85.8861 322.537 85.9863C322.204 86.0866 321.831 86.1367 321.416 86.1367C320.792 86.1367 320.263 86.0342 319.83 85.8291C319.402 85.6195 319.076 85.346 318.853 85.0088C318.634 84.667 318.524 84.3047 318.524 83.9219H319.338C319.365 84.3047 319.486 84.6077 319.7 84.8311C319.914 85.0498 320.176 85.2048 320.486 85.2959C320.801 85.387 321.111 85.4326 321.416 85.4326C321.835 85.4326 322.186 85.3711 322.469 85.248C322.751 85.125 322.965 84.9632 323.111 84.7627C323.257 84.5622 323.33 84.3457 323.33 84.1133Z" fill="white" fill-opacity="0.67"/>
<defs>
<linearGradient id="paint0_linear_10_3" x1="300" y1="0" x2="300" y2="111" gradientUnits="userSpaceOnUse">
<stop/>
<stop offset="1" stop-color="#202020"/>
</linearGradient>
<radialGradient id="paint1_radial_10_3" cx="0" cy="0" r="1" gradientUnits="userSpaceOnUse" gradientTransform="translate(286 27) rotate(90) scale(42 68.2866)">
<stop stop-color="white"/>
<stop offset="1" stop-color="white" stop-opacity="0.34"/>
</radialGradient>
<radialGradient id="paint2_radial_10_3" cx="0" cy="0" r="1" gradientUnits="userSpaceOnUse" gradientTransform="translate(311.5 26) rotate(90.4735) scale(60.5021 88.896)">
<stop stop-color="white"/>
<stop offset="0.0001" stop-color="white"/>
<stop offset="1" stop-color="white" stop-opacity="0"/>
<stop offset="1" stop-color="white" stop-opacity="0.33"/>
</radialGradient>
</defs>
</svg>
